#!OML:ASF I:\Actors\actors\Patient Classification 1\Patient 1\Session 1\Subject1.ASF
:FULLY-SPECIFIED
:DEGREES
682
root -0.522086 17.5161 8.66202 9.59569 -2.32416 -8.15971
lowerback 0.388847 1.30277 7.37961
upperback -11.2704 2.42061 1.37609
thorax -12.1959 0.514289 -2.86602
lowerneck -12.4151 -4.27086 -4.34557
upperneck 28.8297 -7.36766 7.28574
head 11.9441 -2.92009 2.43345
rclavicle -1.33186e-014 -1.0138e-014
rhumerus -45.9339 -29.7789 -65.2321
rradius 17.8988
rwrist 56.9855
rhand 6.65943 -29.1152
rfingers 7.12502
rthumb 31.9515 -776.331
lclavicle -1.33186e-014 -1.0138e-014
lhumerus -45.1446 23.2332 69.1769
lradius 18.8761
lwrist -30.8787
lhand -16.9172 -8.62187
lfingers 7.12502
lthumb 9.31521 21.1523
rfemur -0.702347 26.858 25.6554
rtibia 0.262836
rfoot -12.2416 -27.3932
rtoes 2.4761
lfemur 10.4601 -47.6428 -17.5246
ltibia -5.075
lfoot -31.4856 56.991
ltoes 17.7129
683
root -0.520734 17.5167 8.6612 9.56801 -2.24297 -8.12003
lowerback 0.500927 1.3004 7.47599
upperback -11.2315 2.42708 1.3113
thorax -12.2145 0.503439 -2.99378
lowerneck -12.4121 -4.28983 -4.44443
upperneck 28.7 -7.38175 7.36276
head 11.9009 -2.92998 2.47534
rclavicle -2.08724e-015 9.14409e-015
rhumerus -46.2311 -29.5809 -65.301
rradius 17.9169
rwrist 56.8138
rhand 6.73771 -29.1568
rfingers 7.12502
rthumb 32.026 -776.358
lclavicle -2.08724e-015 9.14409e-015
lhumerus -45.2628 23.6683 68.8302
lradius 18.8952
lwrist -30.644
lhand -16.9412 -8.42618
lfingers 7.12502
lthumb 9.29207 21.3491
rfemur -0.641632 26.9596 25.6419
rtibia 0.235162
rfoot -12.3055 -27.568
rtoes 2.58999
lfemur 10.4775 -47.7518 -17.5995
ltibia -5.04187
lfoot -31.4751 57.0077
ltoes 17.669
684
root -0.519943 17.5166 8.66016 9.57349 -2.19188 -8.08401
lowerback 0.568118 1.29001 7.51606
upperback -11.2144 2.41672 1.25986
thorax -12.2343 0.490491 -3.07293
lowerneck -12.3064 -4.28055 -4.49481
upperneck 28.589 -7.39505 7.51552
head 11.8454 -2.92748 2.53966
rclavicle -6.95746e-016 -2.70347e-014
rhumerus -46.6025 -29.6566 -65.1024
rradius 17.8333
rwrist 57.0856
rhand 6.76951 -29.1321
rfingers 7.12502
rthumb 32.0563 -776.327
lclavicle -6.95746e-016 -2.70347e-014
lhumerus -45.4493 24.1912 68.3885
lradius 18.8647
lwrist -30.5404
lhand -16.9278 -8.2928
lfingers 7.12502
lthumb 9.30503 21.4819
rfemur -0.630138 27.1222 25.6164
rtibia 0.24142
rfoot -12.397 -27.7628
rtoes 2.86433
lfemur 10.4667 -47.9071 -17.6623
ltibia -4.99589
lfoot -31.5281 57.0846
ltoes 17.6147
685
root -0.519807 17.5164 8.65944 9.59034 -2.15514 -8.07836
lowerback 0.611394 1.2974 7.55365
upperback -11.2067 2.43002 1.22369
thorax -12.2485 0.49036 -3.13584
lowerneck -12.6778 -4.48963 -4.44408
upperneck 29.0812 -7.66777 7.24924
head 12.1244 -3.05899 2.39129
rclavicle 2.98177e-015 1.86858e-014
rhumerus -46.9741 -29.7838 -64.8197
rradius 17.7689
rwrist 57.2934
rhand 6.95653 -29.2452
rfingers 7.12502
rthumb 32.2343 -776.404
lclavicle 2.98177e-015 1.86858e-014
lhumerus -45.6316 24.5266 68.1149
lradius 18.866
lwrist -30.4206
lhand -16.9299 -8.36733
lfingers 7.12502
lthumb 9.30295 21.4074
rfemur -0.640239 27.2186 25.6123
rtibia 0.247726
rfoot -12.4676 -27.8875
rtoes 3.0358
lfemur 10.4687 -48.0352 -17.6678
ltibia -5.01965
lfoot -31.5833 57.1551
ltoes 17.6544
686
root -0.520491 17.5161 8.65841 9.61897 -2.10741 -8.07447
lowerback 0.635905 1.29545 7.52818
upperback -11.191 2.42846 1.23508
thorax -12.2459 0.493462 -3.10985
lowerneck -12.2942 -4.31341 -4.35624
upperneck 28.7526 -7.44842 7.37365
head 11.8994 -2.95088 2.4576
rclavicle 6.26172e-015 1.19271e-014
rhumerus -47.0569 -29.3971 -65.0267
rradius 17.7555
rwrist 56.5456
rhand 6.73758 -29.6717
rfingers 7.12502
rthumb 32.0259 -776.872
lclavicle 6.26172e-015 1.19271e-014
lhumerus -45.7744 24.7784 68.0247
lradius 18.8803
lwrist -30.3174
lhand -16.9587 -8.30218
lfingers 7.12502
lthumb 9.27518 21.4738
rfemur -0.684925 27.2292 25.6014
rtibia 0.266506
rfoot -12.5028 -27.9333
rtoes 2.91609
lfemur 10.3717 -47.9827 -17.5694
ltibia -5.04912
lfoot -31.3983 57.1099
ltoes 17.5571
687
root -0.521818 17.5161 8.65836 9.63811 -2.05965 -8.0978
lowerback 0.652701 1.27221 7.47427
upperback -11.1696 2.3988 1.28778
thorax -12.237 0.48887 -3.01989
lowerneck -12.4611 -4.33492 -4.21995
upperneck 28.9505 -7.48102 7.22124
head 12.0022 -2.96121 2.37204
rclavicle 6.90777e-015 9.54166e-015
rhumerus -47.1117 -29.0204 -65.188
rradius 17.7214
rwrist 55.9071
rhand 6.30288 -29.9921
rfingers 7.12502
rthumb 31.6119 -777.275
lclavicle 6.90777e-015 9.54166e-015
lhumerus -45.9485 25.2063 67.8305
lradius 18.8145
lwrist -30.5119
lhand -16.8789 -8.13352
lfingers 7.12502
lthumb 9.35216 21.639
rfemur -0.706092 27.2783 25.6406
rtibia 0.290418
rfoot -12.5123 -28.0208
rtoes 2.96034
lfemur 10.2734 -47.8941 -17.4455
ltibia -5.04965
lfoot -31.1715 57.0354
ltoes 17.4653
688
root -0.523647 17.5164 8.66049 9.59393 -2.03977 -8.1501
lowerback 0.703591 1.24031 7.42821
upperback -11.1278 2.36181 1.35931
thorax -12.2266 0.481507 -2.91388
lowerneck -12.4476 -4.33132 -3.96454
upperneck 28.9356 -7.46906 6.99243
head 11.9711 -2.95673 2.24341
rclavicle -1.39646e-014 -1.41137e-014
rhumerus -47.4997 -29.457 -64.4713
rradius 17.6775
rwrist 56.9061
rhand 6.6841 -29.9037
rfingers 7.12502
rthumb 31.9749 -777.115
lclavicle -1.39646e-014 -1.41137e-014
lhumerus -46.1731 25.8016 67.4995
lradius 18.6912
lwrist -31.0189
lhand -16.6542 -8.18778
lfingers 7.12502
lthumb 9.56896 21.5749
rfemur -0.606736 27.3645 25.7607
rtibia 0.259568
rfoot -12.4681 -28.1451
rtoes 3.09851
lfemur 10.3537 -47.8797 -17.4296
ltibia -5.06027
lfoot -31.1372 57.0037
ltoes 17.5454
689
root -0.525353 17.5166 8.66191 9.55064 -2.05758 -8.18268
lowerback 0.741505 1.22972 7.37976
upperback -11.0698 2.34982 1.41734
thorax -12.1854 0.487083 -2.82346
lowerneck -12.4636 -4.35099 -3.88941
upperneck 28.9491 -7.47367 6.84998
head 11.9702 -2.96752 2.17596
rclavicle -1.13804e-014 2.56432e-014
rhumerus -47.9066 -30.0995 -63.5826
rradius 17.6151
rwrist 58.0706
rhand 7.12691 -29.8146
rfingers 7.12502
rthumb 32.3965 -776.94
lclavicle -1.13804e-014 2.56432e-014
lhumerus -46.2841 26.1633 67.4072
lradius 18.5943
lwrist -31.305
lhand -16.4185 -8.20238
lfingers 7.12502
lthumb 9.79641 21.5498
rfemur -0.537141 27.2775 25.8251
rtibia 0.224847
rfoot -12.4014 -28.0653
rtoes 3.01294
lfemur 10.4426 -47.8448 -17.4543
ltibia -5.06582
lfoot -31.0142 57.0306
ltoes 17.3721
690
root -0.527187 17.5169 8.66224 9.53718 -2.07562 -8.18335
lowerback 0.748717 1.22733 7.30088
upperback -11.018 2.34285 1.46335
thorax -12.1318 0.497691 -2.72904
lowerneck -12.4222 -4.37538 -3.69885
upperneck 28.8822 -7.47217 6.59017
head 11.9147 -2.98047 2.04559
rclavicle -1.18774e-014 -3.47873e-014
rhumerus -48.1691 -30.5389 -62.9518
rradius 17.5189
rwrist 58.5945
rhand 7.04117 -29.8154
rfingers 7.12502
rthumb 32.3149 -776.958
lclavicle -1.18774e-014 -3.47873e-014
lhumerus -46.2798 26.1033 67.6728
lradius 18.5812
lwrist -31.1407
lhand -16.2323 -8.21449
lfingers 7.12502
lthumb 9.97602 21.5291
rfemur -0.534334 27.082 25.8118
rtibia 0.206244
rfoot -12.3675 -27.8588
rtoes 2.88536
lfemur 10.4583 -47.7884 -17.4584
ltibia -5.07568
lfoot -30.7524 57.0943
ltoes 17.0112
